<mxfile host="Electron" modified="2024-09-04T10:48:41.537Z" agent="Mozilla/5.0 (Macintosh; Intel Mac OS X 10_15_7) AppleWebKit/537.36 (KHTML, like Gecko) draw.io/24.1.0 Chrome/120.0.6099.109 Electron/28.1.0 Safari/537.36" etag="yJfgzy-TuJiK_Z62CxfT" version="24.1.0" type="device">
  <diagram name="Page-1" id="oHMy0XgIS3fy84Z57K9I">
    <mxGraphModel dx="1434" dy="854" grid="1" gridSize="10" guides="1" tooltips="1" connect="1" arrows="1" fold="1" page="1" pageScale="1" pageWidth="850" pageHeight="1100" math="0" shadow="0">
      <root>
        <mxCell id="0" />
        <mxCell id="1" parent="0" />
        <mxCell id="IWMQ4xGMSrqYWpNa5fHh-56" value="" style="rounded=0;whiteSpace=wrap;html=1;" vertex="1" parent="1">
          <mxGeometry x="720" y="120" width="350" height="150" as="geometry" />
        </mxCell>
        <mxCell id="IWMQ4xGMSrqYWpNa5fHh-9" style="edgeStyle=orthogonalEdgeStyle;rounded=0;orthogonalLoop=1;jettySize=auto;html=1;" edge="1" parent="1" source="IWMQ4xGMSrqYWpNa5fHh-1" target="IWMQ4xGMSrqYWpNa5fHh-5">
          <mxGeometry relative="1" as="geometry" />
        </mxCell>
        <mxCell id="IWMQ4xGMSrqYWpNa5fHh-1" value="PsqlStorage (Proxy)" style="swimlane;fontStyle=1;align=center;verticalAlign=top;childLayout=stackLayout;horizontal=1;startSize=26;horizontalStack=0;resizeParent=1;resizeParentMax=0;resizeLast=0;collapsible=1;marginBottom=0;whiteSpace=wrap;html=1;fillColor=#dae8fc;strokeColor=#6c8ebf;" vertex="1" parent="1">
          <mxGeometry x="90" y="130" width="160" height="60" as="geometry" />
        </mxCell>
        <mxCell id="IWMQ4xGMSrqYWpNa5fHh-2" value="+ storage: PostgresStorage" style="text;strokeColor=none;fillColor=none;align=left;verticalAlign=top;spacingLeft=4;spacingRight=4;overflow=hidden;rotatable=0;points=[[0,0.5],[1,0.5]];portConstraint=eastwest;whiteSpace=wrap;html=1;" vertex="1" parent="IWMQ4xGMSrqYWpNa5fHh-1">
          <mxGeometry y="26" width="160" height="26" as="geometry" />
        </mxCell>
        <mxCell id="IWMQ4xGMSrqYWpNa5fHh-3" value="" style="line;strokeWidth=1;fillColor=none;align=left;verticalAlign=middle;spacingTop=-1;spacingLeft=3;spacingRight=3;rotatable=0;labelPosition=right;points=[];portConstraint=eastwest;strokeColor=inherit;" vertex="1" parent="IWMQ4xGMSrqYWpNa5fHh-1">
          <mxGeometry y="52" width="160" height="8" as="geometry" />
        </mxCell>
        <mxCell id="IWMQ4xGMSrqYWpNa5fHh-10" style="edgeStyle=orthogonalEdgeStyle;rounded=0;orthogonalLoop=1;jettySize=auto;html=1;entryX=1;entryY=0.25;entryDx=0;entryDy=0;exitX=0.75;exitY=0;exitDx=0;exitDy=0;dashed=1;" edge="1" parent="1" source="IWMQ4xGMSrqYWpNa5fHh-5" target="IWMQ4xGMSrqYWpNa5fHh-1">
          <mxGeometry relative="1" as="geometry" />
        </mxCell>
        <mxCell id="IWMQ4xGMSrqYWpNa5fHh-35" style="edgeStyle=orthogonalEdgeStyle;rounded=0;orthogonalLoop=1;jettySize=auto;html=1;" edge="1" parent="1" source="IWMQ4xGMSrqYWpNa5fHh-5" target="IWMQ4xGMSrqYWpNa5fHh-16">
          <mxGeometry relative="1" as="geometry" />
        </mxCell>
        <mxCell id="IWMQ4xGMSrqYWpNa5fHh-5" value="PostgresStorage&lt;span style=&quot;white-space: pre;&quot;&gt;&#x9;&lt;/span&gt;" style="swimlane;fontStyle=1;align=center;verticalAlign=top;childLayout=stackLayout;horizontal=1;startSize=26;horizontalStack=0;resizeParent=1;resizeParentMax=0;resizeLast=0;collapsible=1;marginBottom=0;whiteSpace=wrap;html=1;" vertex="1" parent="1">
          <mxGeometry x="140" y="240" width="250" height="118" as="geometry" />
        </mxCell>
        <mxCell id="IWMQ4xGMSrqYWpNa5fHh-6" value="+ proxy: WeakRef(PsqlStorage)&lt;div&gt;+ master: PsqlInstance&lt;/div&gt;&lt;div&gt;+ readers: List&amp;lt;PsqlInstance&amp;gt;&lt;/div&gt;&lt;div&gt;+ children: Collection&amp;lt;PostgresInstance/PsqlSession&amp;gt;&lt;/div&gt;" style="text;strokeColor=none;fillColor=none;align=left;verticalAlign=top;spacingLeft=4;spacingRight=4;overflow=hidden;rotatable=0;points=[[0,0.5],[1,0.5]];portConstraint=eastwest;whiteSpace=wrap;html=1;" vertex="1" parent="IWMQ4xGMSrqYWpNa5fHh-5">
          <mxGeometry y="26" width="250" height="84" as="geometry" />
        </mxCell>
        <mxCell id="IWMQ4xGMSrqYWpNa5fHh-7" value="" style="line;strokeWidth=1;fillColor=none;align=left;verticalAlign=middle;spacingTop=-1;spacingLeft=3;spacingRight=3;rotatable=0;labelPosition=right;points=[];portConstraint=eastwest;strokeColor=inherit;" vertex="1" parent="IWMQ4xGMSrqYWpNa5fHh-5">
          <mxGeometry y="110" width="250" height="8" as="geometry" />
        </mxCell>
        <mxCell id="IWMQ4xGMSrqYWpNa5fHh-11" value="PsqlInstance (Proxy)" style="swimlane;fontStyle=1;align=center;verticalAlign=top;childLayout=stackLayout;horizontal=1;startSize=26;horizontalStack=0;resizeParent=1;resizeParentMax=0;resizeLast=0;collapsible=1;marginBottom=0;whiteSpace=wrap;html=1;fillColor=#dae8fc;strokeColor=#6c8ebf;" vertex="1" parent="1">
          <mxGeometry x="450" y="240" width="220" height="98" as="geometry" />
        </mxCell>
        <mxCell id="IWMQ4xGMSrqYWpNa5fHh-12" value="+ postgresInstance: PostgresInstance&amp;nbsp;" style="text;strokeColor=none;fillColor=none;align=left;verticalAlign=top;spacingLeft=4;spacingRight=4;overflow=hidden;rotatable=0;points=[[0,0.5],[1,0.5]];portConstraint=eastwest;whiteSpace=wrap;html=1;" vertex="1" parent="IWMQ4xGMSrqYWpNa5fHh-11">
          <mxGeometry y="26" width="220" height="44" as="geometry" />
        </mxCell>
        <mxCell id="IWMQ4xGMSrqYWpNa5fHh-13" value="" style="line;strokeWidth=1;fillColor=none;align=left;verticalAlign=middle;spacingTop=-1;spacingLeft=3;spacingRight=3;rotatable=0;labelPosition=right;points=[];portConstraint=eastwest;strokeColor=inherit;" vertex="1" parent="IWMQ4xGMSrqYWpNa5fHh-11">
          <mxGeometry y="70" width="220" height="28" as="geometry" />
        </mxCell>
        <mxCell id="IWMQ4xGMSrqYWpNa5fHh-36" style="edgeStyle=orthogonalEdgeStyle;rounded=0;orthogonalLoop=1;jettySize=auto;html=1;exitX=0.992;exitY=0.112;exitDx=0;exitDy=0;entryX=0.25;entryY=0;entryDx=0;entryDy=0;exitPerimeter=0;" edge="1" parent="1" source="IWMQ4xGMSrqYWpNa5fHh-15" target="IWMQ4xGMSrqYWpNa5fHh-25">
          <mxGeometry relative="1" as="geometry" />
        </mxCell>
        <mxCell id="IWMQ4xGMSrqYWpNa5fHh-15" value="PostgresInstance" style="swimlane;fontStyle=1;align=center;verticalAlign=top;childLayout=stackLayout;horizontal=1;startSize=26;horizontalStack=0;resizeParent=1;resizeParentMax=0;resizeLast=0;collapsible=1;marginBottom=0;whiteSpace=wrap;html=1;" vertex="1" parent="1">
          <mxGeometry x="420" y="400" width="250" height="98" as="geometry" />
        </mxCell>
        <mxCell id="IWMQ4xGMSrqYWpNa5fHh-16" value="+ proxy: WeakRef(PsqlInstance)&lt;div&gt;+ connectionPool: Map&amp;lt;PsqlConnection&amp;gt;&lt;/div&gt;&lt;div&gt;+ children: Map&amp;lt;PostgresConnection&amp;gt;&lt;/div&gt;" style="text;strokeColor=none;fillColor=none;align=left;verticalAlign=top;spacingLeft=4;spacingRight=4;overflow=hidden;rotatable=0;points=[[0,0.5],[1,0.5]];portConstraint=eastwest;whiteSpace=wrap;html=1;" vertex="1" parent="IWMQ4xGMSrqYWpNa5fHh-15">
          <mxGeometry y="26" width="250" height="64" as="geometry" />
        </mxCell>
        <mxCell id="IWMQ4xGMSrqYWpNa5fHh-17" value="" style="line;strokeWidth=1;fillColor=none;align=left;verticalAlign=middle;spacingTop=-1;spacingLeft=3;spacingRight=3;rotatable=0;labelPosition=right;points=[];portConstraint=eastwest;strokeColor=inherit;" vertex="1" parent="IWMQ4xGMSrqYWpNa5fHh-15">
          <mxGeometry y="90" width="250" height="8" as="geometry" />
        </mxCell>
        <mxCell id="IWMQ4xGMSrqYWpNa5fHh-19" value="" style="edgeStyle=orthogonalEdgeStyle;rounded=0;orthogonalLoop=1;jettySize=auto;html=1;entryX=0.25;entryY=0;entryDx=0;entryDy=0;exitX=0.25;exitY=1;exitDx=0;exitDy=0;" edge="1" parent="1" source="IWMQ4xGMSrqYWpNa5fHh-11" target="IWMQ4xGMSrqYWpNa5fHh-15">
          <mxGeometry relative="1" as="geometry" />
        </mxCell>
        <mxCell id="IWMQ4xGMSrqYWpNa5fHh-20" value="" style="edgeStyle=orthogonalEdgeStyle;rounded=0;orthogonalLoop=1;jettySize=auto;html=1;dashed=1;entryX=0.5;entryY=1;entryDx=0;entryDy=0;" edge="1" parent="1" source="IWMQ4xGMSrqYWpNa5fHh-15" target="IWMQ4xGMSrqYWpNa5fHh-11">
          <mxGeometry relative="1" as="geometry" />
        </mxCell>
        <mxCell id="IWMQ4xGMSrqYWpNa5fHh-29" value="" style="edgeStyle=orthogonalEdgeStyle;rounded=0;orthogonalLoop=1;jettySize=auto;html=1;entryX=0.723;entryY=1;entryDx=0;entryDy=0;entryPerimeter=0;exitX=1;exitY=0.5;exitDx=0;exitDy=0;" edge="1" parent="1" source="IWMQ4xGMSrqYWpNa5fHh-22" target="IWMQ4xGMSrqYWpNa5fHh-27">
          <mxGeometry relative="1" as="geometry" />
        </mxCell>
        <mxCell id="IWMQ4xGMSrqYWpNa5fHh-21" value="PsqlConnection (Proxy)" style="swimlane;fontStyle=1;align=center;verticalAlign=top;childLayout=stackLayout;horizontal=1;startSize=26;horizontalStack=0;resizeParent=1;resizeParentMax=0;resizeLast=0;collapsible=1;marginBottom=0;whiteSpace=wrap;html=1;fillColor=#dae8fc;strokeColor=#6c8ebf;" vertex="1" parent="1">
          <mxGeometry x="460" y="610" width="310" height="60" as="geometry" />
        </mxCell>
        <mxCell id="IWMQ4xGMSrqYWpNa5fHh-22" value="+ postgresConnection: PostgresConnection" style="text;strokeColor=none;fillColor=none;align=left;verticalAlign=top;spacingLeft=4;spacingRight=4;overflow=hidden;rotatable=0;points=[[0,0.5],[1,0.5]];portConstraint=eastwest;whiteSpace=wrap;html=1;" vertex="1" parent="IWMQ4xGMSrqYWpNa5fHh-21">
          <mxGeometry y="26" width="310" height="26" as="geometry" />
        </mxCell>
        <mxCell id="IWMQ4xGMSrqYWpNa5fHh-23" value="" style="line;strokeWidth=1;fillColor=none;align=left;verticalAlign=middle;spacingTop=-1;spacingLeft=3;spacingRight=3;rotatable=0;labelPosition=right;points=[];portConstraint=eastwest;strokeColor=inherit;" vertex="1" parent="IWMQ4xGMSrqYWpNa5fHh-21">
          <mxGeometry y="52" width="310" height="8" as="geometry" />
        </mxCell>
        <mxCell id="IWMQ4xGMSrqYWpNa5fHh-25" value="PostgresConnection" style="swimlane;fontStyle=1;align=center;verticalAlign=top;childLayout=stackLayout;horizontal=1;startSize=26;horizontalStack=0;resizeParent=1;resizeParentMax=0;resizeLast=0;collapsible=1;marginBottom=0;whiteSpace=wrap;html=1;" vertex="1" parent="1">
          <mxGeometry x="790" y="470" width="310" height="98" as="geometry" />
        </mxCell>
        <mxCell id="IWMQ4xGMSrqYWpNa5fHh-26" value="+ proxy: WeakRef(PsqlConnection)&lt;div&gt;+ pgConnection: PgConnection&lt;/div&gt;&lt;div&gt;+ postgresInstance: PostgresInstance&lt;/div&gt;&lt;div&gt;+ autoCLosable = false (by default)&lt;/div&gt;" style="text;strokeColor=none;fillColor=none;align=left;verticalAlign=top;spacingLeft=4;spacingRight=4;overflow=hidden;rotatable=0;points=[[0,0.5],[1,0.5]];portConstraint=eastwest;whiteSpace=wrap;html=1;" vertex="1" parent="IWMQ4xGMSrqYWpNa5fHh-25">
          <mxGeometry y="26" width="310" height="64" as="geometry" />
        </mxCell>
        <mxCell id="IWMQ4xGMSrqYWpNa5fHh-27" value="" style="line;strokeWidth=1;fillColor=none;align=left;verticalAlign=middle;spacingTop=-1;spacingLeft=3;spacingRight=3;rotatable=0;labelPosition=right;points=[];portConstraint=eastwest;strokeColor=inherit;" vertex="1" parent="IWMQ4xGMSrqYWpNa5fHh-25">
          <mxGeometry y="90" width="310" height="8" as="geometry" />
        </mxCell>
        <mxCell id="IWMQ4xGMSrqYWpNa5fHh-31" value="" style="edgeStyle=orthogonalEdgeStyle;rounded=0;orthogonalLoop=1;jettySize=auto;html=1;entryX=0.25;entryY=0;entryDx=0;entryDy=0;exitX=0.364;exitY=1.031;exitDx=0;exitDy=0;exitPerimeter=0;" edge="1" parent="1" source="IWMQ4xGMSrqYWpNa5fHh-16" target="IWMQ4xGMSrqYWpNa5fHh-21">
          <mxGeometry relative="1" as="geometry">
            <Array as="points">
              <mxPoint x="511" y="580" />
              <mxPoint x="538" y="580" />
            </Array>
          </mxGeometry>
        </mxCell>
        <mxCell id="IWMQ4xGMSrqYWpNa5fHh-94" value="in connectionPool" style="edgeLabel;html=1;align=center;verticalAlign=middle;resizable=0;points=[];" vertex="1" connectable="0" parent="IWMQ4xGMSrqYWpNa5fHh-31">
          <mxGeometry x="-0.1833" y="1" relative="1" as="geometry">
            <mxPoint as="offset" />
          </mxGeometry>
        </mxCell>
        <mxCell id="IWMQ4xGMSrqYWpNa5fHh-33" style="edgeStyle=orthogonalEdgeStyle;rounded=0;orthogonalLoop=1;jettySize=auto;html=1;exitX=0;exitY=0.5;exitDx=0;exitDy=0;" edge="1" parent="1" source="IWMQ4xGMSrqYWpNa5fHh-26" target="IWMQ4xGMSrqYWpNa5fHh-16">
          <mxGeometry relative="1" as="geometry" />
        </mxCell>
        <mxCell id="IWMQ4xGMSrqYWpNa5fHh-37" style="edgeStyle=orthogonalEdgeStyle;rounded=0;orthogonalLoop=1;jettySize=auto;html=1;dashed=1;entryX=0.808;entryY=1;entryDx=0;entryDy=0;entryPerimeter=0;" edge="1" parent="1" source="IWMQ4xGMSrqYWpNa5fHh-21" target="IWMQ4xGMSrqYWpNa5fHh-17">
          <mxGeometry relative="1" as="geometry" />
        </mxCell>
        <mxCell id="IWMQ4xGMSrqYWpNa5fHh-46" style="edgeStyle=orthogonalEdgeStyle;rounded=0;orthogonalLoop=1;jettySize=auto;html=1;" edge="1" parent="1" source="IWMQ4xGMSrqYWpNa5fHh-38" target="IWMQ4xGMSrqYWpNa5fHh-42">
          <mxGeometry relative="1" as="geometry" />
        </mxCell>
        <mxCell id="IWMQ4xGMSrqYWpNa5fHh-38" value="PsqlSession (Proxy)" style="swimlane;fontStyle=1;align=center;verticalAlign=top;childLayout=stackLayout;horizontal=1;startSize=26;horizontalStack=0;resizeParent=1;resizeParentMax=0;resizeLast=0;collapsible=1;marginBottom=0;whiteSpace=wrap;html=1;fillColor=#dae8fc;strokeColor=#6c8ebf;" vertex="1" parent="1">
          <mxGeometry x="100" y="498" width="250" height="60" as="geometry" />
        </mxCell>
        <mxCell id="IWMQ4xGMSrqYWpNa5fHh-39" value="+ postgresConnection: PostgresConnection&amp;nbsp;" style="text;strokeColor=none;fillColor=none;align=left;verticalAlign=top;spacingLeft=4;spacingRight=4;overflow=hidden;rotatable=0;points=[[0,0.5],[1,0.5]];portConstraint=eastwest;whiteSpace=wrap;html=1;" vertex="1" parent="IWMQ4xGMSrqYWpNa5fHh-38">
          <mxGeometry y="26" width="250" height="26" as="geometry" />
        </mxCell>
        <mxCell id="IWMQ4xGMSrqYWpNa5fHh-40" value="" style="line;strokeWidth=1;fillColor=none;align=left;verticalAlign=middle;spacingTop=-1;spacingLeft=3;spacingRight=3;rotatable=0;labelPosition=right;points=[];portConstraint=eastwest;strokeColor=inherit;" vertex="1" parent="IWMQ4xGMSrqYWpNa5fHh-38">
          <mxGeometry y="52" width="250" height="8" as="geometry" />
        </mxCell>
        <mxCell id="IWMQ4xGMSrqYWpNa5fHh-47" style="edgeStyle=orthogonalEdgeStyle;rounded=0;orthogonalLoop=1;jettySize=auto;html=1;entryX=0.75;entryY=1;entryDx=0;entryDy=0;exitX=0.75;exitY=0;exitDx=0;exitDy=0;dashed=1;" edge="1" parent="1" source="IWMQ4xGMSrqYWpNa5fHh-42" target="IWMQ4xGMSrqYWpNa5fHh-38">
          <mxGeometry relative="1" as="geometry" />
        </mxCell>
        <mxCell id="IWMQ4xGMSrqYWpNa5fHh-42" value="PostgresSession" style="swimlane;fontStyle=1;align=center;verticalAlign=top;childLayout=stackLayout;horizontal=1;startSize=26;horizontalStack=0;resizeParent=1;resizeParentMax=0;resizeLast=0;collapsible=1;marginBottom=0;whiteSpace=wrap;html=1;" vertex="1" parent="1">
          <mxGeometry x="130" y="640" width="210" height="78" as="geometry" />
        </mxCell>
        <mxCell id="IWMQ4xGMSrqYWpNa5fHh-43" value="+ proxy: PsqlSession&lt;div&gt;+ psqlConnection: PsqlConnection&lt;/div&gt;" style="text;strokeColor=none;fillColor=none;align=left;verticalAlign=top;spacingLeft=4;spacingRight=4;overflow=hidden;rotatable=0;points=[[0,0.5],[1,0.5]];portConstraint=eastwest;whiteSpace=wrap;html=1;" vertex="1" parent="IWMQ4xGMSrqYWpNa5fHh-42">
          <mxGeometry y="26" width="210" height="44" as="geometry" />
        </mxCell>
        <mxCell id="IWMQ4xGMSrqYWpNa5fHh-44" value="" style="line;strokeWidth=1;fillColor=none;align=left;verticalAlign=middle;spacingTop=-1;spacingLeft=3;spacingRight=3;rotatable=0;labelPosition=right;points=[];portConstraint=eastwest;strokeColor=inherit;" vertex="1" parent="IWMQ4xGMSrqYWpNa5fHh-42">
          <mxGeometry y="70" width="210" height="8" as="geometry" />
        </mxCell>
        <mxCell id="IWMQ4xGMSrqYWpNa5fHh-48" style="edgeStyle=orthogonalEdgeStyle;rounded=0;orthogonalLoop=1;jettySize=auto;html=1;entryX=0;entryY=0.5;entryDx=0;entryDy=0;" edge="1" parent="1" source="IWMQ4xGMSrqYWpNa5fHh-43" target="IWMQ4xGMSrqYWpNa5fHh-21">
          <mxGeometry relative="1" as="geometry" />
        </mxCell>
        <mxCell id="IWMQ4xGMSrqYWpNa5fHh-52" style="edgeStyle=orthogonalEdgeStyle;rounded=0;orthogonalLoop=1;jettySize=auto;html=1;entryX=1;entryY=0.25;entryDx=0;entryDy=0;dashed=1;" edge="1" parent="1">
          <mxGeometry relative="1" as="geometry">
            <mxPoint x="840" y="184.5" as="sourcePoint" />
            <mxPoint x="760" y="184.5" as="targetPoint" />
            <Array as="points">
              <mxPoint x="838" y="184.5" />
            </Array>
          </mxGeometry>
        </mxCell>
        <mxCell id="IWMQ4xGMSrqYWpNa5fHh-53" value="Weak reference" style="text;html=1;align=left;verticalAlign=middle;whiteSpace=wrap;rounded=0;" vertex="1" parent="1">
          <mxGeometry x="850" y="170" width="110" height="30" as="geometry" />
        </mxCell>
        <mxCell id="IWMQ4xGMSrqYWpNa5fHh-54" value="" style="rounded=0;whiteSpace=wrap;html=1;fillColor=#dae8fc;strokeColor=#6c8ebf;" vertex="1" parent="1">
          <mxGeometry x="760" y="200" width="80" height="30" as="geometry" />
        </mxCell>
        <mxCell id="IWMQ4xGMSrqYWpNa5fHh-55" value="Proxy object - it delegates all work to real object it is exposed to client" style="text;html=1;align=left;verticalAlign=middle;whiteSpace=wrap;rounded=0;" vertex="1" parent="1">
          <mxGeometry x="850" y="200" width="170" height="50" as="geometry" />
        </mxCell>
        <mxCell id="IWMQ4xGMSrqYWpNa5fHh-58" style="edgeStyle=orthogonalEdgeStyle;rounded=0;orthogonalLoop=1;jettySize=auto;html=1;" edge="1" parent="1">
          <mxGeometry relative="1" as="geometry">
            <mxPoint x="840" y="160" as="sourcePoint" />
            <mxPoint x="760" y="160" as="targetPoint" />
            <Array as="points">
              <mxPoint x="800" y="160" />
              <mxPoint x="800" y="160" />
            </Array>
          </mxGeometry>
        </mxCell>
        <mxCell id="IWMQ4xGMSrqYWpNa5fHh-59" value="Strong reference" style="text;html=1;align=left;verticalAlign=middle;whiteSpace=wrap;rounded=0;" vertex="1" parent="1">
          <mxGeometry x="850" y="145" width="110" height="30" as="geometry" />
        </mxCell>
        <mxCell id="IWMQ4xGMSrqYWpNa5fHh-61" style="edgeStyle=orthogonalEdgeStyle;rounded=0;orthogonalLoop=1;jettySize=auto;html=1;entryX=0;entryY=0.227;entryDx=0;entryDy=0;entryPerimeter=0;" edge="1" parent="1" source="IWMQ4xGMSrqYWpNa5fHh-6" target="IWMQ4xGMSrqYWpNa5fHh-43">
          <mxGeometry relative="1" as="geometry">
            <Array as="points">
              <mxPoint x="60" y="308" />
              <mxPoint x="60" y="676" />
            </Array>
          </mxGeometry>
        </mxCell>
        <mxCell id="IWMQ4xGMSrqYWpNa5fHh-64" value="connection state after newRead/WriteSession(...)" style="swimlane;whiteSpace=wrap;html=1;" vertex="1" parent="1">
          <mxGeometry x="80" y="810" width="430" height="500" as="geometry" />
        </mxCell>
        <mxCell id="IWMQ4xGMSrqYWpNa5fHh-79" style="edgeStyle=orthogonalEdgeStyle;rounded=0;orthogonalLoop=1;jettySize=auto;html=1;entryX=0.5;entryY=0;entryDx=0;entryDy=0;" edge="1" parent="IWMQ4xGMSrqYWpNa5fHh-64" source="IWMQ4xGMSrqYWpNa5fHh-73" target="IWMQ4xGMSrqYWpNa5fHh-75">
          <mxGeometry relative="1" as="geometry" />
        </mxCell>
        <mxCell id="IWMQ4xGMSrqYWpNa5fHh-81" style="edgeStyle=orthogonalEdgeStyle;rounded=0;orthogonalLoop=1;jettySize=auto;html=1;exitX=1;exitY=0.5;exitDx=0;exitDy=0;entryX=0.5;entryY=0;entryDx=0;entryDy=0;" edge="1" parent="IWMQ4xGMSrqYWpNa5fHh-64" source="IWMQ4xGMSrqYWpNa5fHh-73" target="IWMQ4xGMSrqYWpNa5fHh-76">
          <mxGeometry relative="1" as="geometry" />
        </mxCell>
        <mxCell id="IWMQ4xGMSrqYWpNa5fHh-73" value="P*Storage" style="rounded=1;whiteSpace=wrap;html=1;" vertex="1" parent="IWMQ4xGMSrqYWpNa5fHh-64">
          <mxGeometry x="30" y="40" width="120" height="60" as="geometry" />
        </mxCell>
        <mxCell id="IWMQ4xGMSrqYWpNa5fHh-74" value="P*Connection" style="rounded=1;whiteSpace=wrap;html=1;" vertex="1" parent="IWMQ4xGMSrqYWpNa5fHh-64">
          <mxGeometry x="30" y="250" width="120" height="60" as="geometry" />
        </mxCell>
        <mxCell id="IWMQ4xGMSrqYWpNa5fHh-80" value="" style="edgeStyle=orthogonalEdgeStyle;rounded=0;orthogonalLoop=1;jettySize=auto;html=1;" edge="1" parent="IWMQ4xGMSrqYWpNa5fHh-64" source="IWMQ4xGMSrqYWpNa5fHh-75" target="IWMQ4xGMSrqYWpNa5fHh-74">
          <mxGeometry relative="1" as="geometry" />
        </mxCell>
        <mxCell id="IWMQ4xGMSrqYWpNa5fHh-75" value="P*Session" style="rounded=1;whiteSpace=wrap;html=1;" vertex="1" parent="IWMQ4xGMSrqYWpNa5fHh-64">
          <mxGeometry x="30" y="140" width="120" height="60" as="geometry" />
        </mxCell>
        <mxCell id="IWMQ4xGMSrqYWpNa5fHh-82" style="edgeStyle=orthogonalEdgeStyle;rounded=0;orthogonalLoop=1;jettySize=auto;html=1;exitX=0;exitY=0.5;exitDx=0;exitDy=0;entryX=1;entryY=0.5;entryDx=0;entryDy=0;" edge="1" parent="IWMQ4xGMSrqYWpNa5fHh-64" source="IWMQ4xGMSrqYWpNa5fHh-76" target="IWMQ4xGMSrqYWpNa5fHh-74">
          <mxGeometry relative="1" as="geometry" />
        </mxCell>
        <mxCell id="IWMQ4xGMSrqYWpNa5fHh-76" value="P*Instance" style="rounded=1;whiteSpace=wrap;html=1;" vertex="1" parent="IWMQ4xGMSrqYWpNa5fHh-64">
          <mxGeometry x="270" y="130" width="120" height="60" as="geometry" />
        </mxCell>
        <mxCell id="IWMQ4xGMSrqYWpNa5fHh-77" value="P*Instance - connectionPool" style="rounded=1;whiteSpace=wrap;html=1;" vertex="1" parent="IWMQ4xGMSrqYWpNa5fHh-64">
          <mxGeometry x="270" y="190" width="120" height="60" as="geometry" />
        </mxCell>
        <mxCell id="IWMQ4xGMSrqYWpNa5fHh-78" value="LEAK DETECTOR:&lt;br&gt;auto-closable list" style="rounded=1;whiteSpace=wrap;html=1;" vertex="1" parent="IWMQ4xGMSrqYWpNa5fHh-64">
          <mxGeometry x="220" y="350" width="120" height="60" as="geometry" />
        </mxCell>
        <mxCell id="IWMQ4xGMSrqYWpNa5fHh-65" value="connection state after close()" style="swimlane;whiteSpace=wrap;html=1;" vertex="1" parent="1">
          <mxGeometry x="630" y="810" width="430" height="500" as="geometry" />
        </mxCell>
        <mxCell id="IWMQ4xGMSrqYWpNa5fHh-84" style="edgeStyle=orthogonalEdgeStyle;rounded=0;orthogonalLoop=1;jettySize=auto;html=1;exitX=1;exitY=0.5;exitDx=0;exitDy=0;entryX=0.5;entryY=0;entryDx=0;entryDy=0;" edge="1" parent="IWMQ4xGMSrqYWpNa5fHh-65" source="IWMQ4xGMSrqYWpNa5fHh-85" target="IWMQ4xGMSrqYWpNa5fHh-90">
          <mxGeometry relative="1" as="geometry" />
        </mxCell>
        <mxCell id="IWMQ4xGMSrqYWpNa5fHh-85" value="P*Storage" style="rounded=1;whiteSpace=wrap;html=1;" vertex="1" parent="IWMQ4xGMSrqYWpNa5fHh-65">
          <mxGeometry x="20" y="40" width="120" height="60" as="geometry" />
        </mxCell>
        <mxCell id="IWMQ4xGMSrqYWpNa5fHh-86" value="P*Connection" style="rounded=1;whiteSpace=wrap;html=1;" vertex="1" parent="IWMQ4xGMSrqYWpNa5fHh-65">
          <mxGeometry x="20" y="250" width="120" height="60" as="geometry" />
        </mxCell>
        <mxCell id="IWMQ4xGMSrqYWpNa5fHh-88" value="P*Session" style="rounded=1;whiteSpace=wrap;html=1;" vertex="1" parent="IWMQ4xGMSrqYWpNa5fHh-65">
          <mxGeometry x="20" y="140" width="120" height="60" as="geometry" />
        </mxCell>
        <mxCell id="IWMQ4xGMSrqYWpNa5fHh-89" style="edgeStyle=orthogonalEdgeStyle;rounded=0;orthogonalLoop=1;jettySize=auto;html=1;exitX=0;exitY=0.5;exitDx=0;exitDy=0;entryX=1;entryY=0.5;entryDx=0;entryDy=0;" edge="1" parent="IWMQ4xGMSrqYWpNa5fHh-65" source="IWMQ4xGMSrqYWpNa5fHh-91" target="IWMQ4xGMSrqYWpNa5fHh-86">
          <mxGeometry relative="1" as="geometry" />
        </mxCell>
        <mxCell id="IWMQ4xGMSrqYWpNa5fHh-90" value="P*Instance" style="rounded=1;whiteSpace=wrap;html=1;" vertex="1" parent="IWMQ4xGMSrqYWpNa5fHh-65">
          <mxGeometry x="260" y="130" width="120" height="60" as="geometry" />
        </mxCell>
        <mxCell id="IWMQ4xGMSrqYWpNa5fHh-91" value="P*Instance - connectionPool" style="rounded=1;whiteSpace=wrap;html=1;" vertex="1" parent="IWMQ4xGMSrqYWpNa5fHh-65">
          <mxGeometry x="260" y="190" width="120" height="60" as="geometry" />
        </mxCell>
        <mxCell id="IWMQ4xGMSrqYWpNa5fHh-97" style="edgeStyle=orthogonalEdgeStyle;rounded=0;orthogonalLoop=1;jettySize=auto;html=1;exitX=0.5;exitY=0;exitDx=0;exitDy=0;entryX=0.75;entryY=1;entryDx=0;entryDy=0;" edge="1" parent="IWMQ4xGMSrqYWpNa5fHh-65" source="IWMQ4xGMSrqYWpNa5fHh-92" target="IWMQ4xGMSrqYWpNa5fHh-86">
          <mxGeometry relative="1" as="geometry" />
        </mxCell>
        <mxCell id="IWMQ4xGMSrqYWpNa5fHh-92" value="LEAK DETECTOR:&lt;br&gt;auto-closable list" style="rounded=1;whiteSpace=wrap;html=1;" vertex="1" parent="IWMQ4xGMSrqYWpNa5fHh-65">
          <mxGeometry x="210" y="350" width="120" height="60" as="geometry" />
        </mxCell>
        <mxCell id="IWMQ4xGMSrqYWpNa5fHh-66" value="" style="shape=flexArrow;endArrow=classic;html=1;rounded=0;width=18;endSize=6.67;" edge="1" parent="1">
          <mxGeometry width="50" height="50" relative="1" as="geometry">
            <mxPoint x="510" y="950" as="sourcePoint" />
            <mxPoint x="630" y="950" as="targetPoint" />
          </mxGeometry>
        </mxCell>
        <mxCell id="IWMQ4xGMSrqYWpNa5fHh-67" value="&lt;b&gt;session.close()&lt;/b&gt;" style="edgeLabel;html=1;align=center;verticalAlign=middle;resizable=0;points=[];" vertex="1" connectable="0" parent="IWMQ4xGMSrqYWpNa5fHh-66">
          <mxGeometry x="-0.4286" y="5" relative="1" as="geometry">
            <mxPoint x="10" y="5" as="offset" />
          </mxGeometry>
        </mxCell>
        <mxCell id="IWMQ4xGMSrqYWpNa5fHh-93" value="in children" style="text;html=1;align=center;verticalAlign=middle;resizable=0;points=[];autosize=1;strokeColor=none;fillColor=none;" vertex="1" parent="1">
          <mxGeometry x="740" y="388" width="80" height="30" as="geometry" />
        </mxCell>
      </root>
    </mxGraphModel>
  </diagram>
</mxfile>
